<!DOCTYPE svg PUBLIC "-//W3C//DTD SVG 20010904//EN" "http://www.w3.org/TR/2001/REC-SVG-20010904/DTD/svg10.dtd">
<svg version="1.0" xmlns="http://www.w3.org/2000/svg" width="1050px" height="886px" viewBox="0 0 10500 8860" preserveAspectRatio="xMidYMid meet">
<g id="layer1" fill="#db2929" stroke="none">
 <path d="M4985 8514 c-22 -2 -92 -9 -155 -15 -710 -67 -1433 -339 -2025 -760 -222 -158 -386 -300 -587 -508 -688 -712 -1089 -1637 -1126 -2593 -33 -855 181 -1644 635 -2343 521 -800 1311 -1405 2220 -1698 594 -193 1250 -252 1888 -171 976 124 1927 623 2580 1355 583 654 921 1412 1017 2274 20 182 17 674 -5 850 -102 805 -402 1500 -914 2111 -370 443 -815 794 -1344 1058 -451 226 -897 359 -1419 422 -127 15 -664 28 -765 18z m745 -119 c517 -62 939 -185 1385 -405 645 -318 1174 -778 1565 -1360 671 -999 845 -2221 479 -3365 -244 -764 -733 -1447 -1394 -1947 -1242 -939 -2960 -1091 -4369 -386 -630 316 -1167 788 -1552 1368 -446 670 -672 1453 -651 2250 7 255 26 433 73 667 180 902 674 1710 1405 2297 539 433 1205 731 1885 845 127 21 252 37 404 51 144 13 613 4 770 -15z"/>
 </g>
<g id="layer2" fill="#a5673f" stroke="none">
 <path d="M4561 5674 c-24 -17 -24 -18 -17 -143 4 -69 24 -358 46 -641 67 -882 72 -952 67 -956 -2 -3 -47 3 -100 12 -101 18 -127 13 -127 -25 0 -9 24 -103 54 -209 38 -138 59 -199 76 -217 41 -44 208 -86 505 -127 219 -30 606 -32 735 -5 264 58 439 197 509 404 59 175 43 441 -38 626 -77 176 -276 350 -507 443 -139 56 -232 75 -404 82 l-155 7 -23 260 c-12 143 -28 273 -34 288 -6 16 -21 35 -32 42 -33 22 -436 161 -486 169 -34 5 -51 2 -69 -10z m879 -1225 c43 -21 87 -55 130 -99 84 -85 110 -148 117 -280 4 -85 2 -100 -19 -140 -34 -67 -107 -101 -216 -102 -84 0 -152 15 -152 35 0 7 -12 149 -26 315 -21 235 -24 306 -15 311 21 13 113 -7 181 -40z"/>
 </g>
<g id="layer3" fill="#de6b50" stroke="none">
 <path d="M5085 8699 c-767 -28 -1504 -254 -2175 -669 -427 -264 -862 -664 -1169 -1075 -302 -404 -529 -853 -670 -1331 -222 -748 -222 -1588 0 -2338 204 -692 600 -1342 1120 -1840 349 -334 673 -563 1101 -776 469 -234 912 -365 1473 -437 219 -28 818 -25 1047 5 797 105 1492 385 2114 850 221 165 396 324 585 528 617 671 980 1453 1096 2359 14 110 18 212 18 480 0 364 -9 475 -61 755 -225 1212 -990 2278 -2089 2910 -134 77 -415 214 -545 265 -596 235 -1196 337 -1845 314z m665 -223 c522 -63 968 -196 1419 -422 814 -407 1443 -1030 1842 -1824 209 -417 334 -835 396 -1325 22 -176 25 -668 5 -850 -156 -1412 -1002 -2600 -2296 -3226 -609 -294 -1256 -433 -1941 -416 -358 9 -661 50 -980 132 -1436 372 -2563 1463 -2945 2854 -110 400 -155 802 -138 1239 50 1298 774 2522 1908 3224 550 341 1188 558 1810 617 63 6 133 13 155 15 101 10 638 -3 765 -18z"/>
 <path d="M4960 8430 c-581 -54 -1020 -171 -1497 -400 -213 -103 -316 -161 -503 -285 -894 -594 -1510 -1503 -1714 -2528 -47 -234 -66 -412 -73 -667 -25 -945 292 -1852 911 -2600 96 -116 329 -354 451 -460 466 -405 1002 -695 1588 -860 1060 -298 2196 -172 3151 351 350 192 638 410 941 713 312 312 544 634 741 1026 455 909 536 1963 223 2927 -220 678 -621 1285 -1165 1763 -287 251 -557 431 -899 600 -446 220 -868 343 -1385 405 -157 19 -626 28 -770 15z m625 -200 c542 -46 1015 -179 1490 -419 387 -196 696 -421 1005 -730 541 -543 907 -1248 1034 -1994 41 -237 51 -368 51 -637 0 -325 -26 -557 -95 -845 -259 -1090 -992 -2005 -2016 -2518 -338 -169 -728 -296 -1109 -362 -381 -65 -841 -72 -1230 -19 -273 38 -594 118 -851 214 -167 62 -517 232 -669 325 -412 252 -813 616 -1087 987 -356 482 -595 1038 -687 1598 -41 250 -46 311 -46 625 0 314 5 374 46 625 90 547 321 1093 663 1565 174 241 464 544 696 729 621 493 1369 790 2157 855 144 12 510 12 648 1z"/>
 </g>
<g id="layer4" fill="#ecedac" stroke="none">
 <path d="M4965 6870 c-236 -24 -564 -114 -779 -214 -659 -307 -1161 -914 -1336 -1616 -52 -209 -65 -321 -65 -585 0 -270 13 -377 70 -601 200 -781 792 -1424 1552 -1688 265 -92 497 -130 788 -130 267 -1 449 24 695 95 652 189 1234 696 1517 1321 149 329 216 643 215 1008 0 383 -77 718 -242 1055 -235 480 -631 877 -1113 1114 -237 117 -467 189 -717 226 -135 20 -455 28 -585 15z m-85 -1286 c113 -40 212 -75 222 -79 29 -11 37 -54 58 -310 12 -137 26 -260 31 -272 8 -22 13 -23 135 -23 403 0 798 -217 925 -507 59 -135 86 -322 69 -475 -37 -324 -232 -497 -618 -549 -304 -41 -1081 58 -1136 144 -15 23 -116 382 -116 411 0 20 13 20 123 0 61 -11 92 -13 99 -6 11 11 10 17 -62 972 -54 705 -56 760 -39 771 25 16 100 -3 309 -77z"/>
 <path d="M5248 4500 l-21 -17 28 -314 c15 -173 29 -318 32 -323 14 -21 81 -38 159 -37 133 0 223 52 254 147 19 55 7 196 -22 269 -32 81 -147 199 -238 244 -87 42 -164 54 -192 31z"/>
 </g>
<g id="layer5" fill="#fbbd08" stroke="none">
 <path d="M4937 8249 c-788 -65 -1536 -361 -2157 -855 -234 -186 -541 -507 -716 -749 -342 -472 -573 -1018 -663 -1565 -41 -251 -46 -311 -46 -625 0 -314 5 -375 46 -625 92 -560 331 -1116 687 -1598 107 -145 208 -260 381 -432 330 -330 620 -536 1046 -745 471 -231 919 -353 1460 -396 184 -15 580 -7 755 15 871 109 1614 451 2247 1034 614 565 1029 1332 1162 2142 37 224 46 341 46 600 0 269 -10 400 -51 637 -128 751 -492 1451 -1044 2004 -319 320 -623 541 -1015 740 -475 240 -948 373 -1490 419 -138 11 -504 11 -648 -1z m613 -1414 c250 -37 480 -109 717 -226 631 -310 1086 -870 1263 -1556 93 -358 98 -764 14 -1137 -204 -911 -941 -1631 -1859 -1815 -185 -37 -278 -46 -490 -45 -233 0 -354 14 -563 65 -695 170 -1270 629 -1582 1264 -115 235 -187 461 -227 715 -25 162 -25 548 0 710 40 255 108 473 222 705 242 494 645 890 1141 1121 215 100 543 190 779 214 130 13 450 5 585 -15z"/>
 </g>

</svg>