<?xml version="1.0" standalone="no"?>
<!DOCTYPE svg PUBLIC "-//W3C//DTD SVG 20010904//EN"
 "http://www.w3.org/TR/2001/REC-SVG-20010904/DTD/svg10.dtd">
<svg version="1.0" xmlns="http://www.w3.org/2000/svg"
 width="1050.000000pt" height="1050.000000pt" viewBox="0 0 1050.000000 1050.000000"
 preserveAspectRatio="xMidYMid meet">
<metadata>
Created by potrace 1.11, written by Peter Selinger 2001-2013
</metadata>
<g transform="translate(0.000000,1050.000000) scale(0.100000,-0.100000)"
fill="#000000" stroke="none">
<path d="M5000 9449 c-609 -33 -1245 -209 -1789 -495 -1592 -837 -2484 -2526
-2255 -4269 147 -1116 744 -2127 1664 -2816 1066 -800 2459 -1071 3765 -734
492 127 913 316 1340 600 524 350 951 791 1276 1319 583 949 762 2096 493
3167 -382 1530 -1602 2726 -3168 3109 -272 66 -527 103 -826 120 -205 11 -273
11 -500 -1z m725 -453 c921 -113 1717 -497 2355 -1136 860 -860 1245 -2061
1045 -3255 -200 -1192 -985 -2227 -2100 -2770 -417 -203 -825 -323 -1305 -382
-205 -25 -696 -25 -900 0 -491 61 -895 179 -1316 386 -413 202 -767 460 -1085
789 -577 597 -929 1330 -1036 2157 -25 198 -25 682 0 880 92 714 359 1340 811
1905 113 141 375 408 511 521 396 329 805 558 1285 720 317 106 610 167 955
198 148 14 626 5 780 -13z"/>
<path d="M5270 6323 c-25 -2 -117 -13 -205 -24 -281 -35 -469 -81 -503 -123
-22 -29 -127 -408 -119 -430 8 -20 20 -20 135 3 l92 18 0 -23 c0 -28 -41 -586
-75 -1019 -13 -170 -29 -397 -36 -504 -12 -185 -12 -194 6 -207 31 -23 85 -10
340 80 216 77 215 76 229 104 8 16 23 136 37 300 l23 272 120 0 c262 0 505 77
696 221 226 171 321 369 322 674 0 208 -46 339 -162 455 -147 147 -361 212
-690 208 -91 -1 -185 -3 -210 -5z m316 -488 c31 -13 63 -38 80 -61 28 -36 29
-42 29 -143 0 -89 -4 -116 -25 -171 -34 -87 -139 -197 -231 -240 -76 -35 -156
-52 -181 -39 -23 13 -23 27 7 349 14 146 25 273 25 282 0 57 188 71 296 23z"/>
</g>
</svg>
